<svg width="67" height="66" viewBox="0 0 67 66" fill="none" xmlns="http://www.w3.org/2000/svg">
<path d="M13.1667 3H3V13M53.8333 3H64V13M13.1667 63H3V53M16.5556 53V49.6667C16.5556 45.2464 18.3408 41.0072 21.5185 37.8816C24.6962 34.7559 29.0061 33 33.5 33M33.5 33C37.9939 33 42.3038 34.7559 45.4815 37.8816C48.6592 41.0072 50.4444 45.2464 50.4444 49.6667V53M33.5 33C36.1964 33 38.7823 31.9464 40.6889 30.0711C42.5955 28.1957 43.6667 25.6522 43.6667 23C43.6667 20.3478 42.5955 17.8043 40.6889 15.9289C38.7823 14.0536 36.1964 13 33.5 13C30.8036 13 28.2177 14.0536 26.3111 15.9289C24.4045 17.8043 23.3333 20.3478 23.3333 23C23.3333 25.6522 24.4045 28.1957 26.3111 30.0711C28.2177 31.9464 30.8036 33 33.5 33ZM53.8333 63H64V53" stroke="url(#paint0_linear_613_167)" stroke-width="5" stroke-linecap="round" stroke-linejoin="round"/>
<defs>
<linearGradient id="paint0_linear_613_167" x1="8.93055" y1="-18.25" x2="143.56" y2="142.281" gradientUnits="userSpaceOnUse">
<stop stop-color="#001933"/>
<stop offset="0.562039" stop-color="#1C74EA"/>
<stop offset="1" stop-color="#001933" stop-opacity="0"/>
</linearGradient>
</defs>
</svg>
