<svg width="66" height="66" viewBox="0 0 66 66" fill="none" xmlns="http://www.w3.org/2000/svg">
<path fill-rule="evenodd" clip-rule="evenodd" d="M56.4985 13.8047L52.2354 0L47.9723 13.8047L39.7246 17.7324L48.0089 21.6766L52.2354 33.7549L56.4618 21.6766L64.7461 17.7324L56.4985 13.8047V13.8047ZM51.0001 16.422L52.2354 12.4228L53.4707 16.4238L56.2199 17.7324L53.5073 19.0246L52.2354 22.6572L50.9634 19.0246L48.2508 17.7324L51.0001 16.4238V16.422Z" fill="url(#paint0_linear_613_158)"/>
<path d="M23.8266 18.1247L25.6594 10.7935L27.4922 18.1247L32.9906 19.9575L27.4922 21.7903L25.6594 29.1216L23.8266 21.7903L18.3281 19.9575L23.8266 18.1247Z" fill="url(#paint1_linear_613_158)"/>
<path fill-rule="evenodd" clip-rule="evenodd" d="M12.8297 61.6538V62.1046C12.8297 63.0768 12.4435 64.0092 11.756 64.6966C11.0686 65.3841 10.1362 65.7703 9.16405 65.7703H3.66562C2.69344 65.7703 1.76107 65.3841 1.07363 64.6966C0.386198 64.0092 0 63.0768 0 62.1046V41.9529C0 40.9807 0.386198 40.0484 1.07363 39.3609C1.76107 38.6735 2.69344 38.2873 3.66562 38.2873H9.16405C9.98959 38.2869 10.7911 38.5653 11.4387 39.0772C12.0864 39.5891 12.5422 40.3047 12.7325 41.108C15.1592 40.2337 17.9945 39.1927 18.8614 38.7968C19.5982 38.4614 20.4487 38.3478 21.1561 38.3056C21.8862 38.2702 22.6179 38.2831 23.3463 38.3441C24.162 38.4091 24.9742 38.5118 25.7803 38.652L25.8225 38.6593L25.8353 38.6612H25.8408L25.8738 38.6685L38.1353 41.4177L38.2104 41.4434L38.2306 41.4507L38.3149 41.4764C38.8439 41.6314 39.3782 41.7678 39.9168 41.8851C40.9706 42.1142 42.2994 42.3286 43.5366 42.3286C44.6802 42.3286 45.8642 42.7557 46.4947 43.914C47.0372 44.9074 46.9108 45.9997 46.7092 46.7549C46.4544 47.6969 45.9302 48.6866 45.2649 49.5279C46.163 49.1888 47.1472 48.7874 48.2029 48.3549L48.4283 48.2633C51.403 47.0408 54.9293 45.5929 58.0414 45.0797C61.5971 44.4913 64.1832 45.7816 65.3562 48.0708C66.4009 50.1089 66.1589 52.783 64.5864 54.394C64.1923 54.7991 63.5912 55.2243 62.9882 55.6147C62.343 56.0344 61.5494 56.5054 60.6678 57.0076C58.6426 58.1417 56.5924 59.2307 54.5188 60.2737C50.1713 62.4785 45.615 64.6229 44.167 65.1526C42.4882 65.7666 40.6847 65.8253 38.9527 65.7354C37.9067 65.6705 36.8624 65.5819 35.8204 65.4697C35.0576 65.3907 34.2939 65.3204 33.5294 65.2589C29.9958 64.9913 27.2832 64.1281 24.7869 63.3345L24.4827 63.2373C21.9021 62.4199 19.5011 61.6923 16.3212 61.564C15.5954 61.5346 14.1438 61.5896 12.8297 61.6519V61.6538ZM20.3808 42.1325C20.5 42.0775 20.8116 41.9987 21.3669 41.9657C21.8874 41.9346 22.4812 41.9547 23.0622 41.9987C23.7574 42.0546 24.4497 42.1421 25.137 42.2608H25.1425L37.1785 44.9605L37.261 44.9862C37.8801 45.1684 38.5055 45.3286 39.136 45.4664C40.2082 45.701 41.6469 45.9466 43.1113 45.9887C42.9806 46.3415 42.8051 46.676 42.589 46.984C42.2957 47.4092 41.975 47.7372 41.7111 47.926C40.9486 48.4722 40.3328 48.6995 39.9589 48.7966C39.8316 48.8315 39.7016 48.856 39.5704 48.8699H39.53L29.7025 48.7526L29.3543 52.3889L29.6805 50.5854L29.3543 52.3889L29.4514 52.4073L29.7318 52.4567L30.7509 52.6364C31.6068 52.7866 32.7816 52.9883 34.0609 53.1972C36.5792 53.6077 39.6144 54.0623 41.3372 54.1667C42.5285 54.2401 43.9141 53.8735 45.2026 53.4428C46.546 52.9937 48.0654 52.3724 49.594 51.7456C52.7409 50.4553 55.9465 49.1412 58.6389 48.6958C60.9666 48.3109 61.7968 49.1613 62.0938 49.7423C62.5208 50.5763 62.2899 51.5018 61.9618 51.8354C61.883 51.9179 61.5952 52.1507 60.9941 52.541C60.4332 52.9021 59.7093 53.3365 58.8588 53.8185C56.8836 54.9244 54.8841 55.9864 52.8619 57.0039C48.4778 59.2271 44.1157 61.267 42.9061 61.7106C41.9274 62.0698 40.7159 62.156 39.1415 62.0753C38.214 62.0207 37.2881 61.9418 36.3648 61.8389C35.513 61.7493 34.6601 61.6711 33.8062 61.6043C30.7051 61.3697 28.3481 60.6201 25.8206 59.8173L25.5915 59.744C22.9743 58.9137 20.1737 58.0505 16.4696 57.902C15.6357 57.869 14.1511 57.9203 12.8297 57.9827V44.9679C15.4048 44.046 19.2207 42.6622 20.3808 42.1325V42.1325ZM25.5054 40.4647L25.8408 38.663L25.5054 40.4647ZM9.16405 41.9511H3.66562V62.1028H9.16405V41.9529V41.9511Z" fill="url(#paint2_linear_613_158)"/>
<defs>
<linearGradient id="paint0_linear_613_158" x1="42.1573" y1="-11.9548" x2="118.326" y2="54.2654" gradientUnits="userSpaceOnUse">
<stop stop-color="#001933"/>
<stop offset="0.562039" stop-color="#1C74EA"/>
<stop offset="1" stop-color="#001933" stop-opacity="0"/>
</linearGradient>
<linearGradient id="paint1_linear_613_158" x1="19.7536" y1="4.30226" x2="61.4324" y2="43.4083" gradientUnits="userSpaceOnUse">
<stop stop-color="#001933"/>
<stop offset="0.562039" stop-color="#1C74EA"/>
<stop offset="1" stop-color="#001933" stop-opacity="0"/>
</linearGradient>
<linearGradient id="paint2_linear_613_158" x1="6.41564" y1="28.5522" x2="45.9141" y2="139.779" gradientUnits="userSpaceOnUse">
<stop stop-color="#001933"/>
<stop offset="0.562039" stop-color="#1C74EA"/>
<stop offset="1" stop-color="#001933" stop-opacity="0"/>
</linearGradient>
</defs>
</svg>
