<svg width="59" height="63" viewBox="0 0 59 63" fill="none" xmlns="http://www.w3.org/2000/svg">
<path d="M4.21421 48.9372C4.21421 49.3583 4.35688 49.7462 4.64222 50.1008C4.92756 50.4554 5.22387 50.7657 5.53115 51.0317C6.54081 51.8739 7.7919 52.572 9.28444 53.1261C10.777 53.6802 12.3463 54.1124 13.9925 54.4227C15.6387 54.733 17.2629 54.9657 18.8652 55.1208C20.4675 55.276 21.9051 55.3425 23.1782 55.3203C24.956 55.3203 26.7229 55.2317 28.4789 55.0544C30.2348 54.877 31.9797 54.5668 33.7137 54.1235V58.4454C31.9797 58.8443 30.2348 59.1325 28.4789 59.3098C26.7229 59.4871 24.956 59.5757 23.1782 59.5757C21.8393 59.5757 20.5114 59.5314 19.1944 59.4427C17.8775 59.3541 16.5496 59.1879 15.2107 58.9441C14.3766 58.8111 13.4328 58.6227 12.3792 58.3789C11.3257 58.1351 10.2282 57.8248 9.08689 57.448C7.94555 57.0712 6.83712 56.628 5.76162 56.1182C4.68612 55.6084 3.72036 54.9989 2.86435 54.2897C2.00834 53.5805 1.31694 52.7826 0.790165 51.896C0.263388 51.0095 0 50.0232 0 48.9372V10.6385C0 9.55251 0.263388 8.56623 0.790165 7.67968C1.31694 6.79314 1.99736 6.00633 2.83142 5.31926C3.66549 4.63219 4.63124 4.02269 5.72869 3.49077C6.82615 2.95884 7.93457 2.50449 9.05397 2.1277C10.1734 1.75092 11.2708 1.44063 12.3463 1.19683C13.4218 0.953034 14.3766 0.764644 15.2107 0.631662C16.5276 0.410026 17.8446 0.254881 19.1615 0.166227C20.4784 0.0775726 21.8173 0.0221636 23.1782 0C24.5171 0 25.845 0.0443272 27.1619 0.132982C28.4789 0.221636 29.8068 0.387863 31.1457 0.631662C31.9578 0.764644 32.9016 0.953034 33.9771 1.19683C35.0526 1.44063 36.15 1.75092 37.2694 2.1277C38.3888 2.50449 39.4973 2.94776 40.5947 3.45752C41.6922 3.96728 42.6579 4.57678 43.492 5.28602C44.326 5.99525 45.0174 6.79314 45.5662 7.67968C46.1149 8.56623 46.3783 9.55251 46.3563 10.6385V21.277H42.1421V16.9219C40.8691 17.742 39.4424 18.429 37.8621 18.9831C36.2817 19.5372 34.6575 19.9805 32.9894 20.3129C31.3213 20.6454 29.6422 20.8892 27.9521 21.0443C26.262 21.1995 24.6707 21.277 23.1782 21.277C21.6856 21.277 20.1053 21.2106 18.4372 21.0776C16.7691 20.9446 15.09 20.7008 13.3999 20.3462C11.7098 19.9916 10.0746 19.5372 8.49427 18.9831C6.91394 18.429 5.48726 17.742 4.21421 16.9219V48.9372ZM23.1782 4.25541C21.9271 4.25541 20.5004 4.3219 18.8981 4.45488C17.2958 4.58786 15.6716 4.8095 14.0254 5.11979C12.3792 5.43008 10.8099 5.87335 9.31736 6.4496C7.82483 7.02586 6.56276 7.72401 5.53115 8.54406C5.22387 8.78786 4.92756 9.08707 4.64222 9.44169C4.35688 9.79631 4.21421 10.1953 4.21421 10.6385C4.21421 11.0596 4.35688 11.4475 4.64222 11.8021C4.92756 12.1567 5.22387 12.467 5.53115 12.733C6.54081 13.5752 7.7919 14.2734 9.28444 14.8274C10.777 15.3815 12.3463 15.8137 13.9925 16.124C15.6387 16.4343 17.2629 16.667 18.8652 16.8222C20.4675 16.9773 21.9051 17.0438 23.1782 17.0216C24.4293 17.0216 25.8559 16.9551 27.4582 16.8222C29.0605 16.6892 30.6847 16.4675 32.3309 16.1573C33.9771 15.847 35.5464 15.4037 37.039 14.8274C38.5315 14.2512 39.7826 13.553 40.7923 12.733C41.0995 12.4892 41.3959 12.19 41.6812 11.8354C41.9665 11.4807 42.1202 11.0818 42.1421 10.6385C42.1421 10.2174 41.9995 9.82955 41.7141 9.47493C41.4288 9.12032 41.1215 8.81003 40.7923 8.54406C39.7826 7.70185 38.5315 7.00369 37.039 6.4496C35.5464 5.89551 33.9881 5.46332 32.3638 5.15303C30.7396 4.84274 29.1154 4.61003 27.4911 4.45488C25.8669 4.29974 24.4293 4.23325 23.1782 4.25541ZM58.999 38.2987C58.999 40.1161 58.6258 41.8449 57.8796 43.485C57.1333 45.1251 56.1017 46.5657 54.7848 47.8069V63L46.3563 58.7446L37.9279 63V47.8069C36.611 46.5879 35.5794 45.1583 34.8331 43.5182C34.0868 41.8781 33.7137 40.1383 33.7137 38.2987C33.7137 36.5478 34.0429 34.8966 34.7014 33.3451C35.3599 31.7937 36.2598 30.4417 37.4011 29.2892C38.5425 28.1367 39.8814 27.2169 41.4178 26.5298C42.9542 25.8427 44.6004 25.5103 46.3563 25.5325C48.0903 25.5325 49.7255 25.8649 51.2619 26.5298C52.7984 27.1947 54.1373 28.1034 55.2786 29.2559C56.42 30.4084 57.3308 31.7715 58.0113 33.3451C58.6917 34.9187 59.0209 36.5699 58.999 38.2987ZM50.5705 50.3335C49.1658 50.8211 47.7611 51.0649 46.3563 51.0649C44.9516 51.0649 43.5469 50.8211 42.1421 50.3335V56.1182L46.3563 53.9905L50.5705 56.1182V50.3335ZM46.3563 46.8095C47.5196 46.8095 48.6061 46.5879 49.6158 46.1446C50.6254 45.7013 51.5253 45.0918 52.3155 44.3161C53.1057 43.5404 53.7093 42.6427 54.1263 41.6232C54.5433 40.6037 54.7628 39.4955 54.7848 38.2987C54.7848 37.124 54.5653 36.0269 54.1263 35.0074C53.6873 33.9879 53.0837 33.0792 52.3155 32.2813C51.5473 31.4834 50.6583 30.8739 49.6487 30.4528C48.639 30.0317 47.5416 29.81 46.3563 29.7879C45.193 29.7879 44.1066 30.0095 43.0969 30.4528C42.0872 30.896 41.1873 31.5055 40.3972 32.2813C39.607 33.057 39.0034 33.9546 38.5864 34.9741C38.1693 35.9937 37.9499 37.1018 37.9279 38.2987C37.9279 39.4733 38.1474 40.5704 38.5864 41.59C39.0254 42.6095 39.629 43.5182 40.3972 44.3161C41.1654 45.114 42.0543 45.7235 43.064 46.1446C44.0736 46.5657 45.1711 46.7873 46.3563 46.8095Z" fill="url(#paint0_linear_613_169)"/>
<defs>
<linearGradient id="paint0_linear_613_169" x1="5.73611" y1="-22.3125" x2="148.662" y2="134.673" gradientUnits="userSpaceOnUse">
<stop stop-color="#001933"/>
<stop offset="0.562039" stop-color="#1C74EA"/>
<stop offset="1" stop-color="#001933" stop-opacity="0"/>
</linearGradient>
</defs>
</svg>
