<svg width="60" height="60" viewBox="0 0 60 60" fill="none" xmlns="http://www.w3.org/2000/svg">
<path d="M26.8486 14.9163H32.8152V35.7991H26.8486V14.9163ZM26.8486 38.7824H32.8152V44.7489H26.8486V38.7824Z" fill="url(#paint0_linear_613_164)"/>
<path d="M58.7913 15.7904L43.8749 0.874101C43.5984 0.59653 43.2696 0.376401 42.9077 0.226387C42.5457 0.0763721 42.1576 -0.000565177 41.7658 3.12549e-06H17.8996C17.5078 -0.000565177 17.1197 0.0763721 16.7577 0.226387C16.3957 0.376401 16.067 0.59653 15.7904 0.874101L0.874101 15.7904C0.59653 16.067 0.376401 16.3957 0.226387 16.7577C0.0763721 17.1197 -0.000565177 17.5078 3.12549e-06 17.8996V41.7658C3.12549e-06 42.5593 0.313246 43.3171 0.874101 43.8749L15.7904 58.7913C16.067 59.0689 16.3957 59.289 16.7577 59.439C17.1197 59.589 17.5078 59.6659 17.8996 59.6654H41.7658C42.5593 59.6654 43.3171 59.3521 43.8749 58.7913L58.7913 43.8749C59.0689 43.5984 59.289 43.2696 59.439 42.9077C59.589 42.5457 59.6659 42.1576 59.6654 41.7658V17.8996C59.6659 17.5078 59.589 17.1197 59.439 16.7577C59.289 16.3957 59.0689 16.067 58.7913 15.7904V15.7904ZM53.6988 40.5307L40.5307 53.6988H19.1347L5.96654 40.5307V19.1347L19.1347 5.96654H40.5307L53.6988 19.1347V40.5307V40.5307Z" fill="url(#paint1_linear_613_164)"/>
<defs>
<linearGradient id="paint0_linear_613_164" x1="27.4287" y1="4.35052" x2="57.6566" y2="11.441" gradientUnits="userSpaceOnUse">
<stop stop-color="#001933"/>
<stop offset="0.562039" stop-color="#1C74EA"/>
<stop offset="1" stop-color="#001933" stop-opacity="0"/>
</linearGradient>
<linearGradient id="paint1_linear_613_164" x1="5.8008" y1="-21.1315" x2="140.048" y2="136.319" gradientUnits="userSpaceOnUse">
<stop stop-color="#001933"/>
<stop offset="0.562039" stop-color="#1C74EA"/>
<stop offset="1" stop-color="#001933" stop-opacity="0"/>
</linearGradient>
</defs>
</svg>
