<svg width="68" height="67" viewBox="0 0 68 67" fill="none" xmlns="http://www.w3.org/2000/svg">
<path d="M44.625 0L68 11.612V37.5081L63.75 35.3968V16.3294L46.75 24.7745V33.2856L42.5 35.3968V24.7745L25.5 16.3294V23.8178L21.25 21.7065V11.612L44.625 0ZM44.625 21.1128L50.502 18.1768L35.1289 9.43476L28.123 12.9316L44.625 21.1128ZM55.084 15.9335L61.127 12.9316L44.625 4.71738L39.6777 7.19153L55.084 15.9335ZM38.25 37.5081L34 39.6194V39.5864L21.25 45.9202V60.9301L34 54.5633V59.3136L19.125 66.7031L0 57.1694V34.869L19.125 25.3683L38.25 34.869V37.5081ZM17 60.9301V45.9202L4.25 39.5864V54.5633L17 60.9301ZM19.125 42.2585L31.377 36.1886L19.125 30.0857L6.87305 36.1886L19.125 42.2585ZM38.25 42.2255L53.125 34.836L68 42.2255V59.6105L53.125 67L38.25 59.6105V42.2255ZM51 61.227V51.1654L42.5 46.9429V57.0044L51 61.227ZM63.75 57.0044V46.9429L55.25 51.1654V61.227L63.75 57.0044ZM53.125 47.5037L61.127 43.5121L53.125 39.5534L45.123 43.5121L53.125 47.5037Z" fill="url(#paint0_linear_613_168)"/>
<defs>
<linearGradient id="paint0_linear_613_168" x1="6.61111" y1="-23.7292" x2="156.992" y2="155.276" gradientUnits="userSpaceOnUse">
<stop stop-color="#001933"/>
<stop offset="0.562039" stop-color="#1C74EA"/>
<stop offset="1" stop-color="#001933" stop-opacity="0"/>
</linearGradient>
</defs>
</svg>
