<svg width="72" height="72" viewBox="0 0 72 72" fill="none" xmlns="http://www.w3.org/2000/svg">
<path d="M15 24.0001C17.3869 24.0001 19.6761 23.0519 21.364 21.3641C23.0518 19.6763 24 17.3871 24 15.0001C24 12.6132 23.0518 10.324 21.364 8.63616C19.6761 6.94833 17.3869 6.00012 15 6.00012C12.6131 6.00012 10.3239 6.94833 8.63604 8.63616C6.94821 10.324 6 12.6132 6 15.0001C6 17.3871 6.94821 19.6763 8.63604 21.3641C10.3239 23.0519 12.6131 24.0001 15 24.0001V24.0001Z" stroke="url(#paint0_linear_355_996)" stroke-width="4" stroke-linecap="round" stroke-linejoin="round"/>
<path d="M9.42411 22.0651C8.11154 24.563 7.16053 27.2347 6.59961 30.0001M22.0646 9.42462C24.5625 8.11207 27.2342 7.16107 29.9996 6.60012M56.9996 24.0001C59.3866 24.0001 61.6757 23.0519 63.3636 21.3641C65.0514 19.6763 65.9996 17.3871 65.9996 15.0001C65.9996 12.6132 65.0514 10.324 63.3636 8.63616C61.6757 6.94833 59.3866 6.00012 56.9996 6.00012C54.6127 6.00012 52.3235 6.94833 50.6356 8.63616C48.9478 10.324 47.9996 12.6132 47.9996 15.0001C47.9996 17.3871 48.9478 19.6763 50.6356 21.3641C52.3235 23.0519 54.6127 24.0001 56.9996 24.0001Z" stroke="url(#paint1_linear_355_996)" stroke-width="4" stroke-linecap="round" stroke-linejoin="round"/>
<path d="M49.935 9.42463C47.4371 8.11207 44.7654 7.16107 42 6.60013M62.574 22.0651C63.8871 24.5629 64.8386 27.2346 65.4 30.0001M57 66.0001C59.3869 66.0001 61.6761 65.0519 63.364 63.3641C65.0518 61.6763 66 59.3871 66 57.0001C66 54.6132 65.0518 52.324 63.364 50.6362C61.6761 48.9483 59.3869 48.0001 57 48.0001C54.6131 48.0001 52.3239 48.9483 50.636 50.6362C48.9482 52.324 48 54.6132 48 57.0001C48 59.3871 48.9482 61.6763 50.636 63.3641C52.3239 65.0519 54.6131 66.0001 57 66.0001Z" stroke="url(#paint2_linear_355_996)" stroke-width="4" stroke-linecap="round" stroke-linejoin="round"/>
<path d="M62.574 49.9351C63.8871 47.4373 64.8386 44.7656 65.4 42.0001M49.935 62.5741C47.4372 63.8872 44.7655 64.8387 42 65.4001M15 66.0001C17.3869 66.0001 19.6761 65.0519 21.364 63.3641C23.0518 61.6763 24 59.3871 24 57.0001C24 54.6132 23.0518 52.324 21.364 50.6362C19.6761 48.9483 17.3869 48.0001 15 48.0001C12.6131 48.0001 10.3239 48.9483 8.63604 50.6362C6.94821 52.324 6 54.6132 6 57.0001C6 59.3871 6.94821 61.6763 8.63604 63.3641C10.3239 65.0519 12.6131 66.0001 15 66.0001V66.0001Z" stroke="url(#paint3_linear_355_996)" stroke-width="4" stroke-linecap="round" stroke-linejoin="round"/>
<path d="M22.0646 62.5741C24.5624 63.8872 27.2341 64.8387 29.9996 65.4001M9.42411 49.9351C8.11156 47.4372 7.16055 44.7655 6.59961 42.0001M35.9996 45.0001V27.0001M26.9996 36.0001H44.9996H26.9996Z" stroke="url(#paint4_linear_355_996)" stroke-width="4" stroke-linecap="round" stroke-linejoin="round"/>
<defs>
<linearGradient id="paint0_linear_355_996" x1="7.75" y1="-0.374878" x2="48.25" y2="47.1251" gradientUnits="userSpaceOnUse">
<stop stop-color="#001933"/>
<stop offset="0.562039" stop-color="#1C74EA"/>
<stop offset="1" stop-color="#001933" stop-opacity="0"/>
</linearGradient>
<linearGradient id="paint1_linear_355_996" x1="12.3746" y1="-2.49988" x2="46.0568" y2="95.2721" gradientUnits="userSpaceOnUse">
<stop stop-color="#001933"/>
<stop offset="0.562039" stop-color="#1C74EA"/>
<stop offset="1" stop-color="#001933" stop-opacity="0"/>
</linearGradient>
<linearGradient id="paint2_linear_355_996" x1="44.3333" y1="-14.4374" x2="149.089" y2="35.2039" gradientUnits="userSpaceOnUse">
<stop stop-color="#001933"/>
<stop offset="0.562039" stop-color="#1C74EA"/>
<stop offset="1" stop-color="#001933" stop-opacity="0"/>
</linearGradient>
<linearGradient id="paint3_linear_355_996" x1="11.775" y1="33.5001" x2="45.4572" y2="131.272" gradientUnits="userSpaceOnUse">
<stop stop-color="#001933"/>
<stop offset="0.562039" stop-color="#1C74EA"/>
<stop offset="1" stop-color="#001933" stop-opacity="0"/>
</linearGradient>
<linearGradient id="paint4_linear_355_996" x1="10.3329" y1="13.4001" x2="96.7329" y2="114.733" gradientUnits="userSpaceOnUse">
<stop stop-color="#001933"/>
<stop offset="0.562039" stop-color="#1C74EA"/>
<stop offset="1" stop-color="#001933" stop-opacity="0"/>
</linearGradient>
</defs>
</svg>
