<svg width="80" height="80" viewBox="0 0 80 80" fill="none" xmlns="http://www.w3.org/2000/svg">
<path d="M37.3335 26.6666C37.3335 25.9593 37.6145 25.2811 38.1146 24.781C38.6147 24.2809 39.293 23.9999 40.0002 23.9999H53.3334C54.0407 23.9999 54.719 24.2809 55.2191 24.781C55.7191 25.2811 56.0001 25.9593 56.0001 26.6666V39.9998C56.0001 40.7071 55.7191 41.3853 55.2191 41.8854C54.719 42.3855 54.0407 42.6665 53.3334 42.6665C52.6262 42.6665 51.9479 42.3855 51.4478 41.8854C50.9477 41.3853 50.6668 40.7071 50.6668 39.9998V33.1039L36.5549 47.2211C36.3069 47.4691 36.0126 47.6657 35.6887 47.7999C35.3647 47.9341 35.0175 48.0031 34.6669 48.0031C34.3163 48.0031 33.9691 47.9341 33.6451 47.7999C33.3212 47.6657 33.0268 47.4691 32.7789 47.2211C32.531 46.9732 32.3343 46.6788 32.2001 46.3549C32.0659 46.031 31.9969 45.6838 31.9969 45.3331C31.9969 44.9825 32.0659 44.6353 32.2001 44.3114C32.3343 43.9874 32.531 43.6931 32.7789 43.4451L46.8962 29.3332H40.0002C39.293 29.3332 38.6147 29.0523 38.1146 28.5522C37.6145 28.0521 37.3335 27.3738 37.3335 26.6666ZM19.3763 17.0239C20.2764 14.391 21.9773 12.1055 24.241 10.4873C26.5047 8.86919 29.2177 7.99949 32.0002 8H58.6667C62.2029 8 65.5943 9.40475 68.0948 11.9052C70.5952 14.4057 72 17.7971 72 21.3333V47.9998C72 53.8557 68.224 58.8264 62.9761 60.6237V62.565C62.9761 64.3517 62.3521 66.6343 60.8854 68.517C59.3441 70.501 56.8961 71.9996 53.5414 71.9996H22.7683C20.8247 72.0131 18.8979 71.6402 17.0997 70.9025C15.3016 70.1647 13.668 69.077 12.2939 67.7024C10.9198 66.3278 9.83261 64.6938 9.09554 62.8954C8.35847 61.0969 7.98621 59.17 8.00039 57.2264V26.4692C8.00039 23.5412 9.05105 21.1039 10.9124 19.4133C12.7257 17.7653 15.099 17.0293 17.435 17.0293H19.3763V17.0239ZM18.667 22.3573H17.4403C16.3686 22.3144 15.3192 22.6718 14.4964 23.3599C13.867 23.9306 13.3337 24.8746 13.3337 26.4639V57.2317C13.3337 62.5277 17.4723 66.6717 22.7736 66.6717H53.5414C55.1361 66.6717 56.0694 66.0263 56.6774 65.2424C57.2648 64.4697 57.6 63.5349 57.6374 62.565V61.333H32.0002C28.464 61.333 25.0727 59.9283 22.5722 57.4278C20.0717 54.9273 18.667 51.536 18.667 47.9998V22.3573ZM32.0002 13.3333C29.8785 13.3333 27.8437 14.1762 26.3434 15.6764C24.8431 17.1767 24.0003 19.2115 24.0003 21.3333V47.9998C24.0003 50.1215 24.8431 52.1563 26.3434 53.6566C27.8437 55.1569 29.8785 55.9997 32.0002 55.9997H58.6667C60.7885 55.9997 62.8233 55.1569 64.3236 53.6566C65.8238 52.1563 66.6667 50.1215 66.6667 47.9998V21.3333C66.6667 19.2115 65.8238 17.1767 64.3236 15.6764C62.8233 14.1762 60.7885 13.3333 58.6667 13.3333H32.0002Z" fill="url(#paint0_linear_613_162)"/>
<defs>
<linearGradient id="paint0_linear_613_162" x1="14.2222" y1="-14.6667" x2="158.222" y2="154.222" gradientUnits="userSpaceOnUse">
<stop stop-color="#001933"/>
<stop offset="0.562039" stop-color="#1C74EA"/>
<stop offset="1" stop-color="#001933" stop-opacity="0"/>
</linearGradient>
</defs>
</svg>
