<svg width="64" height="70" viewBox="0 0 64 70" fill="none" xmlns="http://www.w3.org/2000/svg">
<path d="M0 11L4.69333 6.41667L38.5367 40.3333L63.25 64.9733L58.5933 69.6667L47.5933 58.6667H4.58333V47.6667C4.58333 40.8467 14.1533 36.3733 23.2467 34.32L0 11ZM63.25 47.6667V55.66L56.2833 48.6933V47.6667C56.2833 46.7133 54.45 45.2833 51.5167 44L41.25 33.66C51.1867 35.31 63.25 40.0033 63.25 47.6667ZM11.55 47.6667V51.7H40.6267L29.2233 40.3333C19.9467 41.4333 11.55 45.65 11.55 47.6667ZM33.9167 0C37.8065 0 41.537 1.54523 44.2876 4.29577C47.0381 7.0463 48.5833 10.7768 48.5833 14.6667C48.5833 21.8167 43.45 27.7933 36.6667 29.0767L19.5067 11.9167C20.1493 8.56519 21.9393 5.54226 24.5691 3.3675C27.1989 1.19274 30.5041 0.00201635 33.9167 0ZM33.9167 7.33333C31.9717 7.33333 30.1065 8.10595 28.7312 9.48122C27.356 10.8565 26.5833 12.7217 26.5833 14.6667C26.5833 16.6116 27.356 18.4768 28.7312 19.8521C30.1065 21.2274 31.9717 22 33.9167 22C35.8616 22 37.7268 21.2274 39.1021 19.8521C40.4774 18.4768 41.25 16.6116 41.25 14.6667C41.25 12.7217 40.4774 10.8565 39.1021 9.48122C37.7268 8.10595 35.8616 7.33333 33.9167 7.33333Z" fill="url(#paint0_linear_696_195)"/>
<path fill-rule="evenodd" clip-rule="evenodd" d="M38.5367 40.3333L4.69333 6.41667L0 11L23.2467 34.32C22.8664 34.4059 22.4853 34.496 22.1041 34.5903C13.3697 36.7516 4.58333 41.1319 4.58333 47.6667V58.6667H47.5933L58.5933 69.6667L63.25 64.9733L38.5367 40.3333ZM61.8375 64.9771L37.8288 41.0397L4.68423 7.82329L1.42151 11.0095L25.2334 34.8966L23.4669 35.2954C18.9816 36.3083 14.4362 37.9071 11.0387 40.0515C7.61144 42.2147 5.58333 44.7752 5.58333 47.6667V57.6667H48.0075L58.5906 68.2497L61.8375 64.9771ZM10.55 52.7V47.6667C10.55 47.082 10.8426 46.5758 11.1473 46.194C11.4675 45.7927 11.9042 45.4002 12.4086 45.0235C13.4212 44.2673 14.8332 43.4817 16.5029 42.742C19.8484 41.2598 24.3633 39.9026 29.1056 39.3403L29.5864 39.2833L43.0464 52.7H10.55ZM62.25 53.2458V47.6667C62.25 44.4138 59.6793 41.582 55.495 39.2849C52.2434 37.4998 48.2127 36.1533 44.2522 35.2644L52.0933 43.1615C53.5286 43.8015 54.7359 44.4897 55.6112 45.1656C56.0652 45.5162 56.4594 45.886 56.7489 46.2692C57.0276 46.6381 57.2833 47.1177 57.2833 47.6667V48.2791L62.25 53.2458ZM63.25 55.66V47.6667C63.25 40.4406 52.5241 35.8553 42.9692 33.9722C42.3909 33.8582 41.817 33.7542 41.25 33.66L51.5167 44C54.45 45.2833 56.2833 46.7133 56.2833 47.6667V48.6933L63.25 55.66ZM11.55 51.7V47.6667C11.55 45.65 19.9467 41.4333 29.2233 40.3333L40.6267 51.7H11.55ZM33.9173 1C37.5417 1.00016 41.0176 2.44002 43.5805 5.00287ZM33.9173 1C30.7374 1.00202 27.6569 2.11163 25.2064 4.13813C22.8904 6.05338 21.2733 8.67455 20.5971 11.5929L25.882 16.8778C25.6854 16.1636 25.5833 15.4204 25.5833 14.6667C25.5833 12.4565 26.4613 10.3369 28.0241 8.77411C29.5869 7.21131 31.7065 6.33333 33.9167 6.33333C36.1268 6.33333 38.2464 7.21131 39.8092 8.77411C41.372 10.3369 42.25 12.4565 42.25 14.6667C42.25 16.8768 41.372 18.9964 39.8092 20.5592C38.2464 22.122 36.1268 23 33.9167 23C33.1629 23 32.4197 22.8979 31.7055 22.7013L36.9915 27.9872C43.0557 26.5957 47.5833 21.1475 47.5833 14.6667C47.5833 11.042 46.1435 7.56587 43.5805 5.00287M36.6667 29.0767C43.45 27.7933 48.5833 21.8167 48.5833 14.6667C48.5833 10.7768 47.0381 7.0463 44.2876 4.29577C41.537 1.54523 37.8065 0 33.9167 0C30.5041 0.00201635 27.1989 1.19274 24.5691 3.3675C21.9393 5.54226 20.1493 8.56519 19.5067 11.9167L36.6667 29.0767ZM29.5969 20.5927C30.8437 21.5015 32.3545 22 33.9167 22C35.8616 22 37.7268 21.2274 39.1021 19.8521C40.4774 18.4768 41.25 16.6116 41.25 14.6667C41.25 12.7217 40.4774 10.8565 39.1021 9.48122C37.7268 8.10595 35.8616 7.33333 33.9167 7.33333C31.9717 7.33333 30.1065 8.10595 28.7312 9.48122C27.356 10.8565 26.5833 12.7217 26.5833 14.6667C26.5833 16.2288 27.0818 17.7396 27.9906 18.9864C28.2133 19.2919 28.4606 19.5815 28.7312 19.8521C29.0019 20.1228 29.2915 20.3701 29.5969 20.5927Z" fill="white"/>
<defs>
<linearGradient id="paint0_linear_696_195" x1="6.1493" y1="-24.6736" x2="164.583" y2="144.029" gradientUnits="userSpaceOnUse">
<stop stop-color="#001933"/>
<stop offset="0.562039" stop-color="#1C74EA"/>
<stop offset="1" stop-color="#001933" stop-opacity="0"/>
</linearGradient>
</defs>
</svg>
