<svg width="76" height="76" viewBox="0 0 76 76" fill="none" xmlns="http://www.w3.org/2000/svg">
<g clip-path="url(#clip0_688_179)">
<path d="M21.1113 35.8889H50.6669V40.1111H21.1113V35.8889Z" fill="url(#paint0_linear_688_179)"/>
<path d="M12.667 52.7778H16.8892V57.0001H12.667V52.7778Z" fill="url(#paint1_linear_688_179)"/>
<path d="M21.1113 52.7778H50.6669V57.0001H21.1113V52.7778Z" fill="url(#paint2_linear_688_179)"/>
<path d="M39.3513 23.2222C39.4773 22.4054 39.734 21.6142 40.1113 20.8789L41.2935 19H21.1113V23.2222H39.3513Z" fill="url(#paint3_linear_688_179)"/>
<path d="M71.1027 32.5112H67.556V44.3334H8.44488V31.6668H43.4471C42.0582 31.0069 40.8971 29.9487 40.1115 28.6268C39.8953 28.249 39.7117 27.8535 39.5627 27.4446H8.44488V14.7779H43.7215L46.1493 10.5557H8.44488C7.32508 10.5557 6.25114 11.0005 5.45932 11.7923C4.6675 12.5841 4.22266 13.6581 4.22266 14.7779V61.2223C4.22266 62.3421 4.6675 63.4161 5.45932 64.2079C6.25114 64.9997 7.32508 65.4446 8.44488 65.4446H67.556C68.6758 65.4446 69.7497 64.9997 70.5416 64.2079C71.3334 63.4161 71.7782 62.3421 71.7782 61.2223V32.469L71.1027 32.5112ZM8.44488 61.2223V48.5557H67.556V61.2223H8.44488Z" fill="url(#paint4_linear_688_179)"/>
<path d="M56.6833 2.40671L44.6077 23.2223C44.3268 23.6346 44.1655 24.1167 44.1417 24.6151C44.118 25.1135 44.2327 25.6088 44.4732 26.046C44.7136 26.4832 45.0704 26.8453 45.5041 27.0921C45.9377 27.339 46.4312 27.4609 46.9299 27.4445H71.1021C71.6008 27.4609 72.0944 27.339 72.528 27.0921C72.9616 26.8453 73.3184 26.4832 73.5589 26.046C73.7994 25.6088 73.9141 25.1135 73.8903 24.6151C73.8666 24.1167 73.7053 23.6346 73.4244 23.2223L61.3488 2.40671C61.1107 1.99938 60.77 1.66151 60.3608 1.42671C59.9515 1.19191 59.4879 1.06836 59.016 1.06836C58.5442 1.06836 58.0806 1.19191 57.6713 1.42671C57.2621 1.66151 56.9214 1.99938 56.6833 2.40671Z" fill="url(#paint5_linear_688_179)"/>
<path d="M57.3629 8.56092L50.5592 20.0266C50.4009 20.2538 50.31 20.5193 50.2966 20.7939C50.2833 21.0684 50.3479 21.3412 50.4834 21.582C50.6189 21.8228 50.8199 22.0223 51.0642 22.1582C51.3086 22.2942 51.5866 22.3614 51.8676 22.3523H65.487C65.7679 22.3614 66.046 22.2942 66.2903 22.1582C66.5346 22.0223 66.7357 21.8228 66.8712 21.582C67.0066 21.3412 67.0713 21.0684 67.0579 20.7939C67.0445 20.5193 66.9537 20.2538 66.7954 20.0266L59.9916 8.56092C59.8575 8.33656 59.6655 8.15045 59.4349 8.02112C59.2043 7.89178 58.9431 7.82373 58.6773 7.82373C58.4114 7.82373 58.1502 7.89178 57.9196 8.02112C57.689 8.15045 57.4971 8.33656 57.3629 8.56092Z" fill="white"/>
</g>
<defs>
<linearGradient id="paint0_linear_688_179" x1="23.9848" y1="34.3935" x2="26.2943" y2="53.3542" gradientUnits="userSpaceOnUse">
<stop stop-color="#001933"/>
<stop offset="0.562039" stop-color="#1C74EA"/>
<stop offset="1" stop-color="#001933" stop-opacity="0"/>
</linearGradient>
<linearGradient id="paint1_linear_688_179" x1="13.0775" y1="51.2825" x2="22.5775" y2="62.4244" gradientUnits="userSpaceOnUse">
<stop stop-color="#001933"/>
<stop offset="0.562039" stop-color="#1C74EA"/>
<stop offset="1" stop-color="#001933" stop-opacity="0"/>
</linearGradient>
<linearGradient id="paint2_linear_688_179" x1="23.9848" y1="51.2825" x2="26.2943" y2="70.2431" gradientUnits="userSpaceOnUse">
<stop stop-color="#001933"/>
<stop offset="0.562039" stop-color="#1C74EA"/>
<stop offset="1" stop-color="#001933" stop-opacity="0"/>
</linearGradient>
<linearGradient id="paint3_linear_688_179" x1="23.0735" y1="17.5046" x2="26.3999" y2="36.1533" gradientUnits="userSpaceOnUse">
<stop stop-color="#001933"/>
<stop offset="0.562039" stop-color="#1C74EA"/>
<stop offset="1" stop-color="#001933" stop-opacity="0"/>
</linearGradient>
<linearGradient id="paint4_linear_688_179" x1="10.7906" y1="-8.88415" x2="127.886" y2="160.142" gradientUnits="userSpaceOnUse">
<stop stop-color="#001933"/>
<stop offset="0.562039" stop-color="#1C74EA"/>
<stop offset="1" stop-color="#001933" stop-opacity="0"/>
</linearGradient>
<linearGradient id="paint5_linear_688_179" x1="47.0315" y1="-8.2737" x2="104.857" y2="68.2293" gradientUnits="userSpaceOnUse">
<stop stop-color="#001933"/>
<stop offset="0.562039" stop-color="#1C74EA"/>
<stop offset="1" stop-color="#001933" stop-opacity="0"/>
</linearGradient>
<clipPath id="clip0_688_179">
<rect width="76" height="76" fill="white"/>
</clipPath>
</defs>
</svg>
