<svg width="88" height="83" viewBox="0 0 88 83" fill="none" xmlns="http://www.w3.org/2000/svg">
<path d="M28.0212 28.1247C27.5138 28.1247 27.0001 28.1247 26.478 28.1079C20.6599 27.988 15.6994 27.1256 11.3132 25.4701C10.2142 25.0608 9.1403 24.5867 8.09704 24.0503C4.08622 21.9616 1.84075 19.3259 1.03145 15.7585L1 15.6217V13.6213L1.02936 13.4846C2.14685 8.45314 6.00043 6.07202 9.2334 4.56174C13.217 2.70228 17.6576 1.63372 23.2325 1.1962C29.732 0.693471 35.5585 1.15413 41.0705 2.60972C44.0414 3.39432 47.8572 4.64587 51.0399 7.38878C53.6334 9.62476 54.8284 12.1195 54.6901 15.0096C54.581 17.2666 53.5894 19.2923 51.6584 21.2043C49.2976 23.5434 46.356 24.7928 44.0602 25.6216C39.324 27.3191 34.1957 28.1247 28.0212 28.1247ZM3.51593 15.323C4.18266 18.0828 5.96059 20.0874 9.25646 21.8059C10.209 22.2965 11.189 22.7312 12.1917 23.1079C16.3074 24.6603 20.9975 25.4701 26.5221 25.5858C33.0782 25.7204 38.3784 24.9758 43.1985 23.2405C45.3811 22.4559 47.8824 21.3852 49.8804 19.4059C51.3627 17.9334 52.0882 16.5031 52.1657 14.8855C52.2664 12.7947 51.3837 11.0215 49.3877 9.30083C46.5971 6.89237 43.1293 5.76281 40.4205 5.04974C35.179 3.66776 29.6209 3.23024 23.417 3.71194C18.1524 4.12001 13.9822 5.11495 10.2859 6.84189C6.26461 8.72238 4.22879 10.8385 3.50545 13.8948L3.51593 15.323Z" fill="url(#paint0_linear_694_266)"/>
<path d="M1 35.4366V23.1902L3.03372 24.7952C6.64408 27.6538 10.8205 29.5469 15.8063 30.5986C21.1981 31.7291 26.7219 32.0903 32.2144 31.6714C36.7535 31.3348 40.4184 30.6638 43.7457 29.5679C47.0731 28.472 49.8511 27.008 52.2685 25.0981C52.3604 25.0267 52.4563 24.9607 52.5557 24.9003L54.4469 23.6551L54.6901 23.4195C54.6901 23.5057 54.6628 25.9037 54.6733 25.9773C54.6995 26.1747 54.7142 26.3735 54.7173 26.5726V28.1712C54.7173 30.4135 54.7299 32.7294 54.6943 35.0138C54.6597 35.7838 54.3317 36.5112 53.778 37.0457C51.4948 39.1155 48.6854 40.5837 44.6683 41.8058C39.6133 43.3435 34.1579 44.1028 28.105 44.1028C26.5368 44.1028 24.9307 44.0523 23.2828 43.9514C18.2803 43.6443 13.8774 42.8197 9.82255 41.4272C6.31701 40.2283 3.62287 38.7685 1.59335 36.9679L1 35.4366ZM3.50755 35.2914C5.25613 36.7639 7.59385 37.9986 10.636 39.0377C14.4749 40.3503 18.664 41.1306 23.4401 41.423C31.1619 41.8984 37.8689 41.2295 43.9407 39.3827C47.5805 38.2762 50.0922 36.9784 52.0819 35.1757C52.1295 35.1076 52.1643 35.0313 52.1846 34.9507C52.2161 32.7252 52.2119 30.4556 52.2056 28.2575C49.8312 29.8407 47.2494 31.0858 44.5341 31.9574C40.9992 33.1249 37.1435 33.8337 32.3947 34.185C26.6657 34.6222 20.904 34.2455 15.28 33.066C10.8143 32.1173 6.93971 30.5418 3.50965 28.2553L3.50755 35.2914Z" fill="url(#paint1_linear_694_266)"/>
<path d="M27.8954 61.5H27.4656C21.0436 61.4053 15.8231 60.6186 11.0428 59.0284C9.64822 58.5541 8.29194 57.9732 6.98584 57.291C3.97301 55.747 1.96864 53.4458 1.00839 50.6693V40.8819L2.81567 41.7611L3.74867 42.2197C4.40072 42.5394 5.07582 42.8717 5.73835 43.1831C9.77224 45.0762 14.3512 46.2772 19.7353 46.8536C24.1012 47.3543 28.5036 47.4529 32.8874 47.1481C33.7785 47.0787 34.6926 46.9798 35.5774 46.8851L36.8353 46.7526L38.6657 46.5654L39.238 48.997L38.2044 49.3883C37.5754 49.6281 36.9464 49.8721 36.3174 50.1161C34.8897 50.6693 33.4136 51.2414 31.9292 51.7505C29.8683 52.4551 28.7843 53.8034 28.5369 55.9931C28.4384 56.8345 28.6061 57.7032 29.7509 59.569L30.9208 61.4895H27.8954V61.5ZM3.52433 50.2339C4.2854 52.27 5.79496 53.8434 8.13688 55.0403C9.32925 55.6635 10.567 56.1951 11.8395 56.6305C16.1375 58.0608 20.8382 58.8034 26.5661 58.9548C26.0986 57.9399 25.9146 56.8166 26.0336 55.705C26.3523 52.941 27.6815 50.968 29.992 49.8153C26.4801 49.8981 22.9667 49.7442 19.4754 49.3546C13.8145 48.7488 8.96924 47.4762 4.67957 45.4611C4.29379 45.2802 3.9101 45.0951 3.53061 44.91L3.52433 50.2339Z" fill="url(#paint2_linear_694_266)"/>
<path d="M66.4374 81.5072C65.9561 81.4927 65.4814 81.39 65.0369 81.2044C62.435 80.1989 59.6674 79.1009 56.577 77.8388C55.0926 77.2351 54.5559 76.3664 54.7844 74.8645C53.7738 75.7522 52.6165 75.8447 51.4298 75.1317C48.3993 73.2995 45.562 71.1633 42.9616 68.7561C42.45 68.2807 41.8609 67.6202 41.842 66.7094C41.8273 65.9627 42.2047 65.3611 42.6178 64.8899C42.1523 64.9614 41.6911 65.035 41.2256 65.1171C40.7011 65.2093 40.1615 65.1581 39.6635 64.969C39.1655 64.7798 38.7274 64.4597 38.3952 64.0422C37.7956 63.2962 37.1924 62.5516 36.5858 61.8083C35.831 60.8828 35.049 59.9152 34.2921 58.9666C33.5835 58.0705 33.3465 57.2123 33.5898 56.4193C33.833 55.6263 34.5353 55.0247 35.6654 54.6713C41.3263 52.8918 46.4693 49.9974 51.3795 45.8199C55.0549 42.6942 59.42 42.5196 63.3533 45.3403C65.1291 46.6129 67.0287 47.9781 68.8988 49.3474C72.6413 52.0819 73.8657 56.19 72.2534 60.5988L71.9179 61.516C70.7229 64.7784 69.5928 67.86 69.2112 71.1582C68.9722 73.2322 68.9009 75.3862 68.8317 77.4686L68.794 78.5834C68.7772 79.0441 68.729 80.445 67.6765 81.1434C67.3082 81.3844 66.8771 81.511 66.4374 81.5072ZM57.25 75.3799C57.3108 75.4114 57.3968 75.4514 57.5226 75.5019C60.5983 76.7639 63.3533 77.8493 65.9405 78.8485C66.0407 78.8869 66.1429 78.9199 66.2466 78.9473C66.272 78.7985 66.2867 78.6481 66.2906 78.4972L66.3284 77.3887C66.3997 75.2537 66.471 73.0471 66.7225 70.8679C67.1419 67.271 68.3726 63.9013 69.5677 60.6451L69.901 59.7322C71.1275 56.3667 70.2679 53.4765 67.4165 51.3878C65.5568 50.0247 63.6615 48.6533 61.894 47.3912C58.8854 45.2352 55.8138 45.3551 53.0086 47.7425C47.9138 52.0966 42.3263 55.2266 36.4181 57.0819C36.3153 57.1128 36.2144 57.15 36.1162 57.1933C36.1614 57.2665 36.2111 57.3367 36.265 57.4037C37.0114 58.346 37.7851 59.2968 38.5357 60.2181C39.1465 60.9669 39.7545 61.7172 40.3597 62.4688C40.4103 62.5335 40.4773 62.5832 40.5537 62.6128C40.63 62.6424 40.713 62.6508 40.7937 62.6371C41.9825 62.4267 43.1964 62.2564 44.3684 62.0923L45.7941 61.882L47.7524 61.5959L47.18 63.489C47.1745 63.5062 47.1703 63.5238 47.1674 63.5416C47.1122 63.806 46.9827 64.0491 46.7942 64.242C46.3022 64.7413 45.8074 65.2391 45.3098 65.7355L44.6808 66.3665C44.5892 66.4566 44.5031 66.5521 44.4229 66.6526C44.4733 66.7115 44.5508 66.7914 44.6641 66.8987C47.143 69.1911 49.8475 71.2251 52.736 72.9693C52.8111 73.0211 52.8949 73.0589 52.9834 73.0808C53.0446 73.0436 53.1015 72.9999 53.1532 72.9504C53.7613 72.3993 54.3882 71.8629 54.9941 71.3454C55.2583 71.1225 55.5203 70.8981 55.7803 70.6723L56.468 70.0791L58.1893 71.1119L57.7847 72.9377C57.6281 73.6389 57.4723 74.34 57.3171 75.0412C57.2773 75.2011 57.2584 75.3062 57.25 75.3799Z" fill="url(#paint3_linear_694_266)"/>
<path d="M73.3164 49.8649L61.3657 41.226L65.5589 35.3889L67.8652 32.1579C69.6557 29.6569 71.5049 27.0676 73.352 24.5371C75.0293 22.2359 77.3943 21.1947 80.1807 21.5313C83.0552 21.8783 85.1308 23.5022 86.1833 26.2283C87.1373 28.6977 86.7745 31.1209 85.1098 33.4326C82.9126 36.4841 80.7188 39.5397 78.5286 42.5995L75.5933 46.7034C75.2285 47.2124 74.8595 47.7214 74.5115 48.2031L73.3164 49.8649ZM64.8964 40.6538L72.7608 46.3332C73.025 45.9693 73.2954 45.5928 73.5638 45.2162C74.5422 43.8518 75.5206 42.4845 76.499 41.1145C78.6879 38.0589 80.8817 35.006 83.0803 31.956C84.2313 30.3574 84.483 28.784 83.8477 27.1391C83.1327 25.288 81.8391 24.2721 79.8914 24.0386C78.0044 23.8114 76.5368 24.4593 75.392 26.0285C73.5533 28.5526 71.7062 31.1315 69.922 33.6304L67.6157 36.8634L64.8964 40.6538Z" fill="url(#paint4_linear_694_266)"/>
<path d="M28.0212 28.1247C27.5138 28.1247 27.0001 28.1247 26.478 28.1079C20.6599 27.988 15.6994 27.1256 11.3132 25.4701C10.2142 25.0608 9.1403 24.5867 8.09704 24.0503C4.08622 21.9616 1.84075 19.3259 1.03145 15.7585L1 15.6217V13.6213L1.02936 13.4846C2.14685 8.45314 6.00043 6.07202 9.2334 4.56174C13.217 2.70228 17.6576 1.63372 23.2325 1.1962C29.732 0.693471 35.5585 1.15413 41.0705 2.60972C44.0414 3.39432 47.8572 4.64587 51.0399 7.38878C53.6334 9.62476 54.8284 12.1195 54.6901 15.0096C54.581 17.2666 53.5894 19.2923 51.6584 21.2043C49.2976 23.5434 46.356 24.7928 44.0602 25.6216C39.324 27.3191 34.1957 28.1247 28.0212 28.1247ZM3.51593 15.323C4.18266 18.0828 5.96059 20.0874 9.25646 21.8059C10.209 22.2965 11.189 22.7312 12.1917 23.1079C16.3074 24.6603 20.9975 25.4701 26.5221 25.5858C33.0782 25.7204 38.3784 24.9758 43.1985 23.2405C45.3811 22.4559 47.8824 21.3852 49.8804 19.4059C51.3627 17.9334 52.0882 16.5031 52.1657 14.8855C52.2664 12.7947 51.3837 11.0215 49.3877 9.30083C46.5971 6.89237 43.1293 5.76281 40.4205 5.04974C35.179 3.66776 29.6209 3.23024 23.417 3.71194C18.1524 4.12001 13.9822 5.11495 10.2859 6.84189C6.26461 8.72238 4.22879 10.8385 3.50545 13.8948L3.51593 15.323Z" stroke="url(#paint5_linear_694_266)"/>
<path d="M1 35.4366V23.1902L3.03372 24.7952C6.64408 27.6538 10.8205 29.5469 15.8063 30.5986C21.1981 31.7291 26.7219 32.0903 32.2144 31.6714C36.7535 31.3348 40.4184 30.6638 43.7457 29.5679C47.0731 28.472 49.8511 27.008 52.2685 25.0981C52.3604 25.0267 52.4563 24.9607 52.5557 24.9003L54.4469 23.6551L54.6901 23.4195C54.6901 23.5057 54.6628 25.9037 54.6733 25.9773C54.6995 26.1747 54.7142 26.3735 54.7173 26.5726V28.1712C54.7173 30.4135 54.7299 32.7294 54.6943 35.0138C54.6597 35.7838 54.3317 36.5112 53.778 37.0457C51.4948 39.1155 48.6854 40.5837 44.6683 41.8058C39.6133 43.3435 34.1579 44.1028 28.105 44.1028C26.5368 44.1028 24.9307 44.0523 23.2828 43.9514C18.2803 43.6443 13.8774 42.8197 9.82255 41.4272C6.31701 40.2283 3.62287 38.7685 1.59335 36.9679L1 35.4366ZM3.50755 35.2914C5.25613 36.7639 7.59385 37.9986 10.636 39.0377C14.4749 40.3503 18.664 41.1306 23.4401 41.423C31.1619 41.8984 37.8689 41.2295 43.9407 39.3827C47.5805 38.2762 50.0922 36.9784 52.0819 35.1757C52.1295 35.1076 52.1643 35.0313 52.1846 34.9507C52.2161 32.7252 52.2119 30.4556 52.2056 28.2575C49.8312 29.8407 47.2494 31.0858 44.5341 31.9574C40.9992 33.1249 37.1435 33.8337 32.3947 34.185C26.6657 34.6222 20.904 34.2455 15.28 33.066C10.8143 32.1173 6.93971 30.5418 3.50965 28.2553L3.50755 35.2914Z" stroke="url(#paint6_linear_694_266)"/>
<path d="M27.8954 61.5H27.4656C21.0436 61.4053 15.8231 60.6186 11.0428 59.0284C9.64822 58.5541 8.29194 57.9732 6.98584 57.291C3.97301 55.747 1.96864 53.4458 1.00839 50.6693V40.8819L2.81567 41.7611L3.74867 42.2197C4.40072 42.5394 5.07582 42.8717 5.73835 43.1831C9.77224 45.0762 14.3512 46.2772 19.7353 46.8536C24.1012 47.3543 28.5036 47.4529 32.8874 47.1481C33.7785 47.0787 34.6926 46.9798 35.5774 46.8851L36.8353 46.7526L38.6657 46.5654L39.238 48.997L38.2044 49.3883C37.5754 49.6281 36.9464 49.8721 36.3174 50.1161C34.8897 50.6693 33.4136 51.2414 31.9292 51.7505C29.8683 52.4551 28.7843 53.8034 28.5369 55.9931C28.4384 56.8345 28.6061 57.7032 29.7509 59.569L30.9208 61.4895H27.8954V61.5ZM3.52433 50.2339C4.2854 52.27 5.79496 53.8434 8.13688 55.0403C9.32925 55.6635 10.567 56.1951 11.8395 56.6305C16.1375 58.0608 20.8382 58.8034 26.5661 58.9548C26.0986 57.9399 25.9146 56.8166 26.0336 55.705C26.3523 52.941 27.6815 50.968 29.992 49.8153C26.4801 49.8981 22.9667 49.7442 19.4754 49.3546C13.8145 48.7488 8.96924 47.4762 4.67957 45.4611C4.29379 45.2802 3.9101 45.0951 3.53061 44.91L3.52433 50.2339Z" stroke="url(#paint7_linear_694_266)"/>
<path d="M66.4374 81.5072C65.9561 81.4927 65.4814 81.39 65.0369 81.2044C62.435 80.1989 59.6674 79.1009 56.577 77.8388C55.0926 77.2351 54.5559 76.3664 54.7844 74.8645C53.7738 75.7522 52.6165 75.8447 51.4298 75.1317C48.3993 73.2995 45.562 71.1633 42.9616 68.7561C42.45 68.2807 41.8609 67.6202 41.842 66.7094C41.8273 65.9627 42.2047 65.3611 42.6178 64.8899C42.1523 64.9614 41.6911 65.035 41.2256 65.1171C40.7011 65.2093 40.1615 65.1581 39.6635 64.969C39.1655 64.7798 38.7274 64.4597 38.3952 64.0422C37.7956 63.2962 37.1924 62.5516 36.5858 61.8083C35.831 60.8828 35.049 59.9152 34.2921 58.9666C33.5835 58.0705 33.3465 57.2123 33.5898 56.4193C33.833 55.6263 34.5353 55.0247 35.6654 54.6713C41.3263 52.8918 46.4693 49.9974 51.3795 45.8199C55.0549 42.6942 59.42 42.5196 63.3533 45.3403C65.1291 46.6129 67.0287 47.9781 68.8988 49.3474C72.6413 52.0819 73.8657 56.19 72.2534 60.5988L71.9179 61.516C70.7229 64.7784 69.5928 67.86 69.2112 71.1582C68.9722 73.2322 68.9009 75.3862 68.8317 77.4686L68.794 78.5834C68.7772 79.0441 68.729 80.445 67.6765 81.1434C67.3082 81.3844 66.8771 81.511 66.4374 81.5072ZM57.25 75.3799C57.3108 75.4114 57.3968 75.4514 57.5226 75.5019C60.5983 76.7639 63.3533 77.8493 65.9405 78.8485C66.0407 78.8869 66.1429 78.9199 66.2466 78.9473C66.272 78.7985 66.2867 78.6481 66.2906 78.4972L66.3284 77.3887C66.3997 75.2537 66.471 73.0471 66.7225 70.8679C67.1419 67.271 68.3726 63.9013 69.5677 60.6451L69.901 59.7322C71.1275 56.3667 70.2679 53.4765 67.4165 51.3878C65.5568 50.0247 63.6615 48.6533 61.894 47.3912C58.8854 45.2352 55.8138 45.3551 53.0086 47.7425C47.9138 52.0966 42.3263 55.2266 36.4181 57.0819C36.3153 57.1128 36.2144 57.15 36.1162 57.1933C36.1614 57.2665 36.2111 57.3367 36.265 57.4037C37.0114 58.346 37.7851 59.2968 38.5357 60.2181C39.1465 60.9669 39.7545 61.7172 40.3597 62.4688C40.4103 62.5335 40.4773 62.5832 40.5537 62.6128C40.63 62.6424 40.713 62.6508 40.7937 62.6371C41.9825 62.4267 43.1964 62.2564 44.3684 62.0923L45.7941 61.882L47.7524 61.5959L47.18 63.489C47.1745 63.5062 47.1703 63.5238 47.1674 63.5416C47.1122 63.806 46.9827 64.0491 46.7942 64.242C46.3022 64.7413 45.8074 65.2391 45.3098 65.7355L44.6808 66.3665C44.5892 66.4566 44.5031 66.5521 44.4229 66.6526C44.4733 66.7115 44.5508 66.7914 44.6641 66.8987C47.143 69.1911 49.8475 71.2251 52.736 72.9693C52.8111 73.0211 52.8949 73.0589 52.9834 73.0808C53.0446 73.0436 53.1015 72.9999 53.1532 72.9504C53.7613 72.3993 54.3882 71.8629 54.9941 71.3454C55.2583 71.1225 55.5203 70.8981 55.7803 70.6723L56.468 70.0791L58.1893 71.1119L57.7847 72.9377C57.6281 73.6389 57.4723 74.34 57.3171 75.0412C57.2773 75.2011 57.2584 75.3062 57.25 75.3799Z" stroke="url(#paint8_linear_694_266)"/>
<path d="M73.3164 49.8649L61.3657 41.226L65.5589 35.3889L67.8652 32.1579C69.6557 29.6569 71.5049 27.0676 73.352 24.5371C75.0293 22.2359 77.3943 21.1947 80.1807 21.5313C83.0552 21.8783 85.1308 23.5022 86.1833 26.2283C87.1373 28.6977 86.7745 31.1209 85.1098 33.4326C82.9126 36.4841 80.7188 39.5397 78.5286 42.5995L75.5933 46.7034C75.2285 47.2124 74.8595 47.7214 74.5115 48.2031L73.3164 49.8649ZM64.8964 40.6538L72.7608 46.3332C73.025 45.9693 73.2954 45.5928 73.5638 45.2162C74.5422 43.8518 75.5206 42.4845 76.499 41.1145C78.6879 38.0589 80.8817 35.006 83.0803 31.956C84.2313 30.3574 84.483 28.784 83.8477 27.1391C83.1327 25.288 81.8391 24.2721 79.8914 24.0386C78.0044 23.8114 76.5368 24.4593 75.392 26.0285C73.5533 28.5526 71.7062 31.1315 69.922 33.6304L67.6157 36.8634L64.8964 40.6538Z" stroke="url(#paint9_linear_694_266)"/>
<defs>
<linearGradient id="paint0_linear_694_266" x1="9.33217" y1="-27.513" x2="188.353" y2="195.998" gradientUnits="userSpaceOnUse">
<stop stop-color="#001933"/>
<stop offset="0.562039" stop-color="#1C74EA"/>
<stop offset="1" stop-color="#001933" stop-opacity="0"/>
</linearGradient>
<linearGradient id="paint1_linear_694_266" x1="9.33217" y1="-27.513" x2="188.353" y2="195.998" gradientUnits="userSpaceOnUse">
<stop stop-color="#001933"/>
<stop offset="0.562039" stop-color="#1C74EA"/>
<stop offset="1" stop-color="#001933" stop-opacity="0"/>
</linearGradient>
<linearGradient id="paint2_linear_694_266" x1="9.33217" y1="-27.513" x2="188.353" y2="195.998" gradientUnits="userSpaceOnUse">
<stop stop-color="#001933"/>
<stop offset="0.562039" stop-color="#1C74EA"/>
<stop offset="1" stop-color="#001933" stop-opacity="0"/>
</linearGradient>
<linearGradient id="paint3_linear_694_266" x1="9.33217" y1="-27.513" x2="188.353" y2="195.998" gradientUnits="userSpaceOnUse">
<stop stop-color="#001933"/>
<stop offset="0.562039" stop-color="#1C74EA"/>
<stop offset="1" stop-color="#001933" stop-opacity="0"/>
</linearGradient>
<linearGradient id="paint4_linear_694_266" x1="9.33217" y1="-27.513" x2="188.353" y2="195.998" gradientUnits="userSpaceOnUse">
<stop stop-color="#001933"/>
<stop offset="0.562039" stop-color="#1C74EA"/>
<stop offset="1" stop-color="#001933" stop-opacity="0"/>
</linearGradient>
<linearGradient id="paint5_linear_694_266" x1="9.33217" y1="-27.513" x2="188.353" y2="195.998" gradientUnits="userSpaceOnUse">
<stop stop-color="#001933"/>
<stop offset="0.562039" stop-color="#1C74EA"/>
<stop offset="1" stop-color="#001933" stop-opacity="0"/>
</linearGradient>
<linearGradient id="paint6_linear_694_266" x1="9.33217" y1="-27.513" x2="188.353" y2="195.998" gradientUnits="userSpaceOnUse">
<stop stop-color="#001933"/>
<stop offset="0.562039" stop-color="#1C74EA"/>
<stop offset="1" stop-color="#001933" stop-opacity="0"/>
</linearGradient>
<linearGradient id="paint7_linear_694_266" x1="9.33217" y1="-27.513" x2="188.353" y2="195.998" gradientUnits="userSpaceOnUse">
<stop stop-color="#001933"/>
<stop offset="0.562039" stop-color="#1C74EA"/>
<stop offset="1" stop-color="#001933" stop-opacity="0"/>
</linearGradient>
<linearGradient id="paint8_linear_694_266" x1="9.33217" y1="-27.513" x2="188.353" y2="195.998" gradientUnits="userSpaceOnUse">
<stop stop-color="#001933"/>
<stop offset="0.562039" stop-color="#1C74EA"/>
<stop offset="1" stop-color="#001933" stop-opacity="0"/>
</linearGradient>
<linearGradient id="paint9_linear_694_266" x1="9.33217" y1="-27.513" x2="188.353" y2="195.998" gradientUnits="userSpaceOnUse">
<stop stop-color="#001933"/>
<stop offset="0.562039" stop-color="#1C74EA"/>
<stop offset="1" stop-color="#001933" stop-opacity="0"/>
</linearGradient>
</defs>
</svg>
