<svg width="76" height="71" viewBox="0 0 76 71" fill="none" xmlns="http://www.w3.org/2000/svg">
<path d="M75.0002 66.0551C74.5665 66.8275 73.7937 67.1152 73.042 67.426C68.3084 69.3839 63.3512 70.0095 58.2706 69.8705C54.1981 69.7585 50.2258 69.1117 46.4076 67.6481C45.8702 67.4387 45.3485 67.1909 44.8465 66.9066C44.0177 66.4413 43.825 65.6786 44.2104 64.8078C44.5805 64.0065 44.9139 63.1878 45.3225 62.2417H44.2914C40.2452 62.2417 36.1977 62.2417 32.1489 62.2417C31.8371 62.252 31.5251 62.2241 31.2199 62.1587C30.9053 62.0729 30.6297 61.881 30.4399 61.6154C30.25 61.3497 30.1575 61.0266 30.1779 60.7005C30.1983 60.3745 30.3303 60.0654 30.5518 59.8256C30.7732 59.5857 31.0705 59.4298 31.3934 59.384C31.6808 59.3538 31.9699 59.3428 32.2588 59.3512C36.474 59.3512 40.6891 59.3338 44.9043 59.3647C45.5712 59.3647 45.787 59.1716 45.7851 58.5209C45.7851 54.1044 45.7922 49.6886 45.8063 45.2734C45.7908 43.4861 46.3465 41.7407 47.392 40.2923C48.4375 38.844 49.9181 37.7687 51.6173 37.2237C52.5174 36.9263 53.4849 36.8375 54.4679 36.6444C54.4679 34.8236 54.5257 32.9468 54.4428 31.0758C54.4024 30.1529 53.5158 29.5621 52.4596 29.5582C50.2682 29.5485 48.0748 29.5582 45.8834 29.5582C41.5468 29.5582 37.2102 29.5408 32.8756 29.5582C32.1535 29.5786 31.4346 29.456 30.7599 29.1976C30.0852 28.9392 29.468 28.5499 28.9437 28.0521C26.6559 25.9456 24.3315 23.8796 22.0476 21.7691C21.7636 21.494 21.4275 21.2785 21.059 21.1356C20.6906 20.9927 20.2973 20.9251 19.9024 20.9369C15.35 20.9582 10.7975 20.9369 6.24507 20.9485C4.55862 20.9485 3.87055 21.6359 3.87055 23.31V56.9801C3.87055 58.6291 4.59138 59.3435 6.26241 59.3435C10.2598 59.3435 14.2578 59.3435 18.2565 59.3435C18.5454 59.3347 18.8346 59.3463 19.1218 59.3782C19.4467 59.425 19.7451 59.5835 19.9662 59.8265C20.1872 60.0695 20.317 60.3819 20.3334 60.7102C20.3498 61.0386 20.2518 61.3624 20.0561 61.6263C19.8603 61.8902 19.5791 62.0777 19.2606 62.1567C18.9788 62.2163 18.6909 62.2423 18.4029 62.234C14.3323 62.234 10.2611 62.234 6.18917 62.234C3.54482 62.234 1.84873 60.95 1.09513 58.4051C1.06477 58.3415 1.02586 58.2824 0.979492 58.2294V22.0317C1.06237 21.8116 1.15103 21.5915 1.23005 21.3695C1.80826 19.7572 2.8953 18.6663 4.55669 18.2434C5.19096 18.1153 5.83711 18.0557 6.48407 18.0658C7.33982 18.0368 8.19557 18.0658 9.09758 18.0658V3.1094C9.09758 1.55121 9.55244 1.10132 11.131 1.10132H47.2615C48.8593 1.10132 49.2775 1.52031 49.2775 3.1094C49.2775 10.6603 49.2775 18.2132 49.2775 25.7679V26.7797H54.5103C54.5103 25.2196 54.5103 23.5359 54.5103 21.8522C54.5238 20.1144 54.4486 18.3766 54.6125 16.6389C54.8727 13.8778 57.5421 11.8446 60.2905 12.1632C63.2336 12.503 65.1244 14.6733 65.1301 17.7626C65.1391 23.8204 65.1391 29.8774 65.1301 35.9339V36.7487C70.3514 37.2063 73.4834 40.6355 73.4872 45.7657C73.4872 49.6023 73.4872 53.4389 73.4872 57.2775C73.4872 60.0019 74.0654 62.6259 74.9771 65.194L75.0002 66.0551ZM12.0233 18.058H12.8849C15.269 18.058 17.6551 18.0793 20.0393 18.058C20.749 18.0399 21.4552 18.1632 22.1169 18.4208C22.7786 18.6783 23.3827 19.065 23.894 19.5583C26.2069 21.6996 28.5775 23.8062 30.9039 25.9301C31.1665 26.1772 31.4756 26.3694 31.8131 26.4957C32.1506 26.622 32.5098 26.6798 32.8698 26.6658C37.1331 26.6503 41.3984 26.6658 45.6618 26.6658H46.3575V4.05745H12.0233V18.058ZM71.8933 64.8966C70.0411 59.6833 70.7927 54.4102 70.5826 49.2027H48.7571C48.4275 54.4758 49.4433 59.7972 47.408 64.9121C49.371 65.7094 51.4305 66.2437 53.5331 66.5012C53.5664 66.4034 53.5928 66.3034 53.6122 66.2019C53.8454 63.1743 54.0901 60.1487 54.3022 57.1269C54.3754 56.0881 54.8515 55.4857 55.7226 55.4721C56.5938 55.4586 57.2414 56.1016 57.1894 57.15C57.0525 59.8706 56.8636 62.5893 56.6824 65.3079C56.6478 65.8215 56.5552 66.3332 56.4897 66.9008H62.9965C62.9965 66.6962 62.9965 66.6016 62.9965 66.5147C62.7691 63.4253 62.5166 60.3166 62.32 57.2157C62.2526 56.1441 62.8385 55.4992 63.7231 55.4779C64.656 55.4586 65.161 56.0765 65.2053 57.2157C65.2882 59.3396 65.3691 61.4636 65.5098 63.5759C65.5734 64.5413 65.7719 65.5068 65.93 66.6054L71.8933 64.8966ZM70.5441 46.2118C70.9296 42.7749 68.6534 39.7859 65.5021 39.7164C61.6024 39.6314 57.702 39.6314 53.801 39.7164C50.6286 39.7878 48.1326 43.1031 48.7995 46.2098L70.5441 46.2118ZM62.216 36.7506C62.2333 36.5575 62.2506 36.4726 62.2506 36.378C62.2506 30.1773 62.2506 23.9774 62.2506 17.7781C62.2424 17.4409 62.1945 17.1058 62.108 16.7798C61.8786 15.8395 61.2484 15.3047 60.3213 15.1C59.3943 14.8953 58.525 15.1 58.0201 15.9032C57.6581 16.4876 57.4585 17.1581 57.4418 17.8457C57.4014 23.9008 57.4207 29.9559 57.4245 36.0092C57.4245 36.2447 57.4457 36.4803 57.4592 36.7506H62.216Z" fill="url(#paint0_linear_359_1577)" stroke="url(#paint1_linear_359_1577)" stroke-width="1.5"/>
<path d="M26.8445 60.7607C26.8458 61.1387 26.7007 61.5024 26.4397 61.7754C26.1787 62.0484 25.8222 62.2093 25.4452 62.2243C25.2526 62.23 25.0608 62.1968 24.8813 62.1267C24.7018 62.0566 24.5382 61.951 24.4003 61.8163C24.2623 61.6815 24.1529 61.5203 24.0784 61.3423C24.004 61.1643 23.966 60.973 23.9669 60.78C23.9647 60.5931 24.0003 60.4077 24.0714 60.2349C24.1425 60.0621 24.2477 59.9055 24.3807 59.7744C24.5137 59.6433 24.6718 59.5405 24.8454 59.4721C25.0191 59.4037 25.2047 59.3711 25.3912 59.3763C25.578 59.3691 25.7644 59.3994 25.9393 59.4655C26.1142 59.5316 26.2741 59.6322 26.4095 59.7612C26.545 59.8903 26.6533 60.0452 26.728 60.2169C26.8027 60.3885 26.8423 60.5735 26.8445 60.7607Z" fill="url(#paint2_linear_359_1577)" stroke="url(#paint3_linear_359_1577)" stroke-width="1.5"/>
<path d="M29.2607 12.5224H19.7954C19.5064 12.5315 19.2172 12.5192 18.93 12.4857C18.615 12.4317 18.3274 12.2729 18.1136 12.035C17.8999 11.797 17.7725 11.4938 17.752 11.1743C17.7314 10.8549 17.8191 10.5378 18.0007 10.2744C18.1822 10.011 18.4472 9.81659 18.7527 9.72265C19.0572 9.65266 19.3694 9.62216 19.6817 9.6319C26.0882 9.6319 32.4942 9.6319 38.8995 9.6319C39.1876 9.62383 39.4756 9.65107 39.7572 9.713C40.0723 9.7983 40.3484 9.98988 40.539 10.2554C40.7295 10.521 40.8228 10.8442 40.8031 11.1707C40.7834 11.4971 40.6519 11.8068 40.4308 12.0474C40.2098 12.288 39.9126 12.4448 39.5895 12.4915C39.3264 12.5192 39.0618 12.5295 38.7973 12.5224H29.2607Z" fill="url(#paint4_linear_359_1577)" stroke="url(#paint5_linear_359_1577)" stroke-width="1.5"/>
<path d="M35.7564 18.2204C36.9128 18.2204 38.0693 18.2068 39.2257 18.2204C40.1894 18.2358 40.7984 18.7996 40.8138 19.626C40.8292 20.4891 40.2067 21.0954 39.2122 21.1031C36.8569 21.1224 34.501 21.1224 32.1445 21.1031C31.1577 21.1031 30.5294 20.4717 30.5544 19.6144C30.5795 18.7571 31.1905 18.2339 32.158 18.2204C33.351 18.2068 34.5537 18.2204 35.7564 18.2204Z" fill="url(#paint6_linear_359_1577)" stroke="url(#paint7_linear_359_1577)" stroke-width="1.5"/>
<defs>
<linearGradient id="paint0_linear_359_1577" x1="8.17595" y1="-23.261" x2="160.768" y2="169.319" gradientUnits="userSpaceOnUse">
<stop stop-color="#001933"/>
<stop offset="0.562039" stop-color="#1C74EA"/>
<stop offset="1" stop-color="#001933" stop-opacity="0"/>
</linearGradient>
<linearGradient id="paint1_linear_359_1577" x1="8.17595" y1="-23.261" x2="160.768" y2="169.319" gradientUnits="userSpaceOnUse">
<stop stop-color="#001933"/>
<stop offset="0.562039" stop-color="#1C74EA"/>
<stop offset="1" stop-color="#001933" stop-opacity="0"/>
</linearGradient>
<linearGradient id="paint2_linear_359_1577" x1="24.2466" y1="58.366" x2="30.6481" y2="65.9478" gradientUnits="userSpaceOnUse">
<stop stop-color="#001933"/>
<stop offset="0.562039" stop-color="#1C74EA"/>
<stop offset="1" stop-color="#001933" stop-opacity="0"/>
</linearGradient>
<linearGradient id="paint3_linear_359_1577" x1="24.2466" y1="58.366" x2="30.6481" y2="65.9478" gradientUnits="userSpaceOnUse">
<stop stop-color="#001933"/>
<stop offset="0.562039" stop-color="#1C74EA"/>
<stop offset="1" stop-color="#001933" stop-opacity="0"/>
</linearGradient>
<linearGradient id="paint4_linear_359_1577" x1="19.9906" y1="8.60476" x2="21.3872" y2="21.6493" gradientUnits="userSpaceOnUse">
<stop stop-color="#001933"/>
<stop offset="0.562039" stop-color="#1C74EA"/>
<stop offset="1" stop-color="#001933" stop-opacity="0"/>
</linearGradient>
<linearGradient id="paint5_linear_359_1577" x1="19.9906" y1="8.60476" x2="21.3872" y2="21.6493" gradientUnits="userSpaceOnUse">
<stop stop-color="#001933"/>
<stop offset="0.562039" stop-color="#1C74EA"/>
<stop offset="1" stop-color="#001933" stop-opacity="0"/>
</linearGradient>
<linearGradient id="paint6_linear_359_1577" x1="31.5512" y1="17.1861" x2="34.5678" y2="29.6894" gradientUnits="userSpaceOnUse">
<stop stop-color="#001933"/>
<stop offset="0.562039" stop-color="#1C74EA"/>
<stop offset="1" stop-color="#001933" stop-opacity="0"/>
</linearGradient>
<linearGradient id="paint7_linear_359_1577" x1="31.5512" y1="17.1861" x2="34.5678" y2="29.6894" gradientUnits="userSpaceOnUse">
<stop stop-color="#001933"/>
<stop offset="0.562039" stop-color="#1C74EA"/>
<stop offset="1" stop-color="#001933" stop-opacity="0"/>
</linearGradient>
</defs>
</svg>
