<svg width="53" height="66" viewBox="0 0 53 66" fill="none" xmlns="http://www.w3.org/2000/svg">
<path d="M26.5 0L50.6945 5.478C51.3484 5.62609 51.9331 5.9969 52.3523 6.52921C52.7714 7.06153 52.9999 7.72355 53 8.406V38.367C52.9998 41.3302 52.2816 44.2475 50.9091 46.86C49.5366 49.4725 47.5524 51.6994 45.1324 53.343L26.5 66L7.86756 53.343C5.44766 51.7001 3.46337 49.4738 2.09088 46.8617C0.718396 44.2497 0.000177129 41.3328 0 38.37V8.406C0.000114945 7.72355 0.228601 7.06153 0.647747 6.52921C1.06689 5.9969 1.65165 5.62609 2.3055 5.478L26.5 0ZM26.5 6.147L5.88889 10.812V38.367C5.88892 40.3424 6.36758 42.2872 7.28238 44.0289C8.19718 45.7705 9.51983 47.2552 11.1329 48.351L26.5 58.791L41.8671 48.351C43.4801 47.2558 44.8028 45.7718 45.7176 44.0306C46.6324 42.2894 47.1111 40.345 47.1111 38.37V10.812L26.5 6.15V6.147ZM39.6087 21.666L43.7751 25.908L25.0366 45L12.5433 32.271L16.7068 28.029L25.0337 36.513L39.6087 21.663V21.666Z" fill="url(#paint0_linear_688_178)"/>
<defs>
<linearGradient id="paint0_linear_688_178" x1="5.15278" y1="-23.375" x2="155.274" y2="118.013" gradientUnits="userSpaceOnUse">
<stop stop-color="#001933"/>
<stop offset="0.562039" stop-color="#1C74EA"/>
<stop offset="1" stop-color="#001933" stop-opacity="0"/>
</linearGradient>
</defs>
</svg>
