<svg width="29" height="29" viewBox="0 0 29 29" fill="none" xmlns="http://www.w3.org/2000/svg">
<path d="M10.396 14.8263L13.2294 17.6597L18.896 11.993M8.74561 4.48041C9.7618 4.3993 10.7265 3.99974 11.5024 3.33858C12.3792 2.59096 13.4938 2.1803 14.646 2.1803C15.7983 2.1803 16.9128 2.59096 17.7896 3.33858C18.5655 3.99974 19.5303 4.3993 20.5464 4.48041C21.695 4.57179 22.7734 5.06949 23.5881 5.88422C24.4029 6.69894 24.9006 7.77735 24.9919 8.92591C25.0731 9.9421 25.4726 10.9068 26.1338 11.6827C26.8814 12.5595 27.2921 13.6741 27.2921 14.8263C27.2921 15.9786 26.8814 17.0931 26.1338 17.9699C25.4726 18.7458 25.0731 19.7106 24.9919 20.7267C24.9006 21.8753 24.4029 22.9537 23.5881 23.7684C22.7734 24.5832 21.695 25.0809 20.5464 25.1722C19.5303 25.2533 18.5655 25.6529 17.7896 26.3141C16.9128 27.0617 15.7983 27.4724 14.646 27.4724C13.4938 27.4724 12.3792 27.0617 11.5024 26.3141C10.7265 25.6529 9.7618 25.2533 8.74561 25.1722C7.59705 25.0809 6.51864 24.5832 5.70392 23.7684C4.8892 22.9537 4.39149 21.8753 4.30011 20.7267C4.21901 19.7106 3.81944 18.7458 3.15828 17.9699C2.41066 17.0931 2 15.9786 2 14.8263C2 13.6741 2.41066 12.5595 3.15828 11.6827C3.81944 10.9068 4.21901 9.9421 4.30011 8.92591C4.39149 7.77735 4.8892 6.69894 5.70392 5.88422C6.51864 5.06949 7.59705 4.57179 8.74561 4.48041V4.48041Z" stroke="url(#paint0_linear_319_543)" stroke-width="3" stroke-linecap="round" stroke-linejoin="round"/>
<defs>
<linearGradient id="paint0_linear_319_543" x1="4.45895" y1="-6.77731" x2="61.3661" y2="59.9656" gradientUnits="userSpaceOnUse">
<stop stop-color="#001933"/>
<stop offset="0.562039" stop-color="#1C74EA"/>
<stop offset="1" stop-color="#001933" stop-opacity="0"/>
</linearGradient>
</defs>
</svg>
