<svg width="70" height="71" viewBox="0 0 70 71" fill="none" xmlns="http://www.w3.org/2000/svg">
<path fill-rule="evenodd" clip-rule="evenodd" d="M70 15.1497H49.875V30.2434H34.7812V50.3684H54.9062V35.2747H70V15.1497ZM49.875 45.3372H39.8125V35.2747H49.875V45.3372ZM64.9688 30.2434H54.9062V20.1809H64.9688V30.2434ZM39.8125 20.1809H19.6875V0.0559082H39.8125V20.1809ZM60 44.8997H65C66.3257 44.901 67.5967 45.4315 68.5341 46.3747C69.4715 47.318 69.9987 48.5969 70 49.9309V65.0247C69.9987 66.3586 69.4715 67.6376 68.5341 68.5808C67.5967 69.5241 66.3257 70.0546 65 70.0559H5C3.67432 70.0546 2.40332 69.5241 1.46593 68.5808C0.528533 67.6376 0.00132369 66.3586 0 65.0247V49.9309C0.00132369 48.5969 0.528533 47.318 1.46593 46.3747C2.40332 45.4315 3.67432 44.901 5 44.8997H30V49.9309H5V65.0247H65V49.9309H60V44.8997ZM15.3125 57.4778C15.3125 58.9879 14.0883 60.2122 12.5781 60.2122C11.068 60.2122 9.84375 58.9879 9.84375 57.4778C9.84375 55.9676 11.068 54.7434 12.5781 54.7434C14.0883 54.7434 15.3125 55.9676 15.3125 57.4778Z" fill="url(#paint0_linear_229_293)"/>
<defs>
<linearGradient id="paint0_linear_229_293" x1="6.80555" y1="-24.7358" x2="164.306" y2="159.986" gradientUnits="userSpaceOnUse">
<stop stop-color="#001933"/>
<stop offset="0.562039" stop-color="#1C74EA"/>
</linearGradient>
</defs>
</svg>
