<svg width="54" height="66" viewBox="0 0 54 66" fill="none" xmlns="http://www.w3.org/2000/svg">
<path fill-rule="evenodd" clip-rule="evenodd" d="M0 11.867C0 2.76695 15.6141 0.0559082 27.0216 0.0559082C37.8945 0.0559082 54 2.76424 54 11.867V53.2449C54 62.3449 37.2357 65.0559 27.0216 65.0559C16.7643 65.0559 0 62.3476 0 53.2422V11.867ZM27.0216 59.6392C34.8192 59.6392 48.6 57.3019 48.6 52.5597V47.0347C42.8868 50.6692 34.6599 51.8555 27.0216 51.8555C19.359 51.8555 11.1159 50.6692 5.4 47.0347V52.5597C5.4 56.9255 17.8092 59.6392 27.0216 59.6392ZM27.0216 46.4415C34.8192 46.4415 48.6 44.1015 48.6 39.3619V32.9594C42.9003 36.5832 34.6869 37.7803 27.0216 37.7803C19.359 37.7803 11.1132 36.5913 5.4 32.9594V39.3619C5.4 43.7278 17.8092 46.4388 27.0216 46.4415ZM5.4 25.2813C5.4 29.6363 17.7714 32.3609 27.0216 32.3609C34.7463 32.3609 48.6 30.0317 48.6 25.284V18.8599C42.8868 22.4944 34.6599 23.6807 27.0216 23.6807C19.359 23.6807 11.1159 22.4944 5.4 18.8599V25.2813Z" fill="url(#paint0_linear_229_294)"/>
<defs>
<linearGradient id="paint0_linear_229_294" x1="5.25" y1="-22.9649" x2="153.313" y2="121.301" gradientUnits="userSpaceOnUse">
<stop stop-color="#001933"/>
<stop offset="0.562039" stop-color="#1C74EA"/>
</linearGradient>
</defs>
</svg>
