<svg width="60" height="68" viewBox="0 0 60 68" fill="none" xmlns="http://www.w3.org/2000/svg">
<path d="M1.71333 15.5865C0.656666 16.1862 0 17.3252 0 18.558V48.5405C0 49.78 0.656666 50.9123 1.71333 51.5119C7.03667 54.5303 23.2333 63.7026 28.3967 66.6271C28.9033 66.9119 29.46 67.0559 30.02 67.0559C30.5667 67.0559 31.1133 66.9186 31.61 66.6439C36.7733 63.7796 52.91 54.8418 58.2567 51.8771C59.3333 51.2841 60 50.1384 60 48.8922V18.558C60 17.3252 59.3433 16.1862 58.2833 15.5865C52.9667 12.5749 36.8033 3.41931 31.62 0.484708C31.1167 0.199958 30.5567 0.0559082 30 0.0559082C29.44 0.0559082 28.8833 0.199958 28.38 0.484708C23.1967 3.41931 7.03 12.5749 1.71333 15.5865ZM55 22.6718V47.8805L32.5 60.3492V34.9629L55 22.6718ZM7.45333 18.1694L30 5.39581L52.67 18.2397L30 30.6883L7.45333 18.1694Z" fill="url(#paint0_linear_225_237)"/>
<defs>
<linearGradient id="paint0_linear_225_237" x1="5.83333" y1="-23.6733" x2="158.32" y2="136.484" gradientUnits="userSpaceOnUse">
<stop stop-color="#001933"/>
<stop offset="0.562039" stop-color="#1C74EA"/>
</linearGradient>
</defs>
</svg>
