<svg width="70" height="71" viewBox="0 0 70 71" fill="none" xmlns="http://www.w3.org/2000/svg">
<path d="M40.46 59.9628L35 63.1478L10.9375 49.1128V36.3115L32.8475 23.53C33.4862 23.8931 34.2147 24.1184 35 24.1184C35.8653 24.1184 36.7112 23.8618 37.4306 23.3811C38.1501 22.9004 38.7108 22.2171 39.042 21.4176C39.3731 20.6182 39.4597 19.7386 39.2909 18.8899C39.1221 18.0412 38.7054 17.2617 38.0936 16.6498C37.4817 16.038 36.7022 15.6213 35.8535 15.4525C35.0049 15.2837 34.1252 15.3703 33.3258 15.7014C32.5263 16.0326 31.8431 16.5933 31.3623 17.3128C30.8816 18.0323 30.625 18.8781 30.625 19.7434L30.6272 19.7609L7.6475 33.1659C7.31738 33.3588 7.04353 33.6348 6.85317 33.9663C6.66282 34.2979 6.56261 34.6736 6.5625 35.0559V50.3684C6.5625 51.145 6.97594 51.8668 7.6475 52.2584L33.8975 67.5709C34.232 67.7664 34.6125 67.8694 35 67.8694C35.3875 67.8694 35.768 67.7664 36.1025 67.5709L42.665 63.7428L40.46 59.9628Z" fill="url(#paint0_linear_229_271)"/>
<path d="M62.3525 17.8534L55.79 14.0253L53.585 17.8053L59.0625 20.999V49.1128L49.0153 54.9731L26.2456 41.6446L26.25 41.6184C26.25 40.7531 25.9934 39.9072 25.5127 39.1878C25.032 38.4683 24.3487 37.9076 23.5492 37.5764C22.7498 37.2453 21.8701 37.1586 21.0215 37.3275C20.1728 37.4963 19.3933 37.9129 18.7814 38.5248C18.1696 39.1367 17.7529 39.9162 17.5841 40.7649C17.4153 41.6135 17.5019 42.4932 17.833 43.2926C18.1642 44.0921 18.7249 44.7753 19.4444 45.2561C20.1638 45.7368 21.0097 45.9934 21.875 45.9934C22.6581 45.9934 23.3844 45.7703 24.0209 45.4093L47.9084 59.394C48.2434 59.5891 48.6241 59.6921 49.0117 59.6925C49.3994 59.6929 49.7803 59.5907 50.1156 59.3962L62.3525 52.2584C63.0241 51.8668 63.4375 51.145 63.4375 50.3684V19.7434C63.4375 18.9668 63.0241 18.245 62.3525 17.8534Z" fill="url(#paint1_linear_229_271)"/>
<path d="M50.3125 37.8494V12.0872C50.3125 11.3106 49.8991 10.5887 49.2275 10.1972L36.1025 2.54093C35.768 2.34545 35.3875 2.24243 35 2.24243C34.6125 2.24243 34.232 2.34545 33.8975 2.54093L7.6475 17.8534C7.31738 18.0463 7.04353 18.3223 6.85317 18.6539C6.66282 18.9854 6.56261 19.3611 6.5625 19.7434V26.3037H10.9375V20.9991L35 6.96186L45.9375 13.3428V37.8494C44.6359 38.6084 43.75 40.0019 43.75 41.6184C43.75 42.7787 44.2109 43.8915 45.0314 44.712C45.8519 45.5325 46.9647 45.9934 48.125 45.9934C49.2853 45.9934 50.3981 45.5325 51.2186 44.712C52.0391 43.8915 52.5 42.7787 52.5 41.6184C52.5 40.0041 51.6141 38.6084 50.3125 37.8494Z" fill="url(#paint2_linear_229_271)"/>
<defs>
<linearGradient id="paint0_linear_229_271" x1="10.0725" y1="-3.22569" x2="126.99" y2="91.0694" gradientUnits="userSpaceOnUse">
<stop stop-color="#001933"/>
<stop offset="0.562039" stop-color="#1C74EA"/>
</linearGradient>
<linearGradient id="paint1_linear_229_271" x1="21.9661" y1="-2.14855" x2="124.62" y2="118.96" gradientUnits="userSpaceOnUse">
<stop stop-color="#001933"/>
<stop offset="0.562039" stop-color="#1C74EA"/>
</linearGradient>
<linearGradient id="paint2_linear_229_271" x1="11.0286" y1="-13.2527" x2="108.6" y2="106.902" gradientUnits="userSpaceOnUse">
<stop stop-color="#001933"/>
<stop offset="0.562039" stop-color="#1C74EA"/>
</linearGradient>
</defs>
</svg>
